<?xml version="1.0" standalone="no"?>
<!DOCTYPE svg PUBLIC "-//W3C//DTD SVG 20010904//EN"
 "http://www.w3.org/TR/2001/REC-SVG-20010904/DTD/svg10.dtd">
<svg version="1.0" xmlns="http://www.w3.org/2000/svg"
 width="228.000000pt" height="228.000000pt" viewBox="0 0 228.000000 228.000000"
 preserveAspectRatio="xMidYMid meet">
<metadata>
Created by potrace 1.14, written by Peter Selinger 2001-2017
</metadata>
<g transform="translate(0.000000,228.000000) scale(0.100000,-0.100000)"
fill="#000000" stroke="none">
<path d="M1010 2060 c-29 -15 -48 -30 -43 -35 4 -6 4 -7 -1 -3 -8 7 -65 -17
-76 -31 -3 -4 -20 -13 -37 -20 -18 -8 -33 -16 -33 -20 0 -4 -16 -13 -35 -20
-19 -7 -35 -17 -35 -22 0 -5 -3 -8 -7 -7 -11 3 -76 -32 -85 -46 -5 -6 -8 -7
-8 -1 0 7 -3 7 -8 0 -4 -5 -46 -30 -94 -55 -47 -25 -84 -49 -81 -55 4 -5 3 -7
-2 -3 -8 8 -134 -57 -151 -78 -6 -8 -13 -11 -16 -9 -5 5 -77 -71 -79 -84 -1
-3 -4 -17 -6 -31 -3 -14 -6 -236 -7 -494 -3 -449 -2 -469 15 -473 11 -3 19 -9
19 -14 0 -5 6 -9 13 -9 8 0 24 -9 37 -20 13 -11 29 -20 37 -20 7 0 13 -4 13
-10 0 -5 6 -10 14 -10 7 0 19 -7 26 -15 7 -8 16 -12 21 -9 5 3 9 0 9 -5 0 -6
6 -11 14 -11 12 0 14 74 15 461 1 254 4 473 7 488 12 51 46 96 94 129 28 17
54 32 60 32 5 0 10 5 10 11 0 5 4 8 9 5 5 -3 14 0 20 8 7 8 23 17 37 20 15 4
22 11 18 18 -4 6 -3 8 3 5 6 -4 32 8 59 25 27 18 52 32 55 33 3 0 35 17 70 39
92 56 200 110 227 114 21 3 82 -25 82 -38 0 -3 -44 -29 -98 -59 -53 -30 -113
-64 -132 -76 -19 -12 -37 -22 -40 -22 -6 0 -123 -65 -130 -73 -3 -3 -18 -12
-35 -20 -16 -8 -33 -19 -37 -25 -4 -5 -8 -7 -8 -3 0 11 -111 -61 -133 -86 -53
-60 -52 -45 -52 -565 l0 -484 60 -34 c33 -18 81 -44 106 -58 l47 -24 0 478 c1
263 2 484 4 492 2 7 9 20 16 27 7 8 10 17 8 21 -2 3 18 22 45 41 27 19 56 41
64 48 8 7 15 10 15 5 0 -4 7 1 15 11 8 11 15 17 15 12 0 -8 92 44 102 59 4 5
8 6 8 2 0 -5 12 0 28 11 15 10 54 34 87 52 33 18 63 38 67 44 4 6 8 7 8 3 0
-4 25 8 55 28 31 19 59 35 64 35 5 0 11 5 13 11 4 12 78 17 107 8 8 -2 23 -12
34 -22 18 -18 18 -19 0 -36 -10 -9 -37 -25 -60 -35 -24 -11 -43 -23 -43 -28 0
-4 -6 -8 -14 -8 -8 0 -21 -6 -28 -13 -7 -7 -16 -14 -21 -15 -17 -4 -73 -36
-79 -46 -4 -6 -8 -7 -8 -3 0 5 -12 0 -27 -10 -16 -11 -39 -24 -53 -31 -14 -6
-32 -16 -40 -22 -8 -5 -48 -28 -89 -51 -41 -23 -81 -46 -88 -53 -47 -36 -73
-70 -82 -103 -7 -24 -11 -213 -11 -511 0 -465 0 -474 20 -479 11 -3 20 -9 20
-13 0 -8 51 -34 63 -32 4 1 7 -2 7 -8 0 -5 7 -10 15 -10 8 0 15 -4 15 -10 0
-5 5 -10 11 -10 6 0 23 -9 38 -19 l28 -20 0 483 c0 522 2 536 54 587 16 16 29
26 29 22 0 -3 8 0 18 9 9 8 28 19 42 26 27 13 62 34 70 42 3 3 10 6 15 7 11 2
124 67 141 81 6 5 20 13 32 16 12 4 22 12 22 17 0 5 3 8 8 7 13 -3 62 25 62
35 0 6 3 8 6 5 3 -3 56 24 117 59 62 36 128 75 147 85 83 48 121 71 118 73 -2
2 -19 12 -39 23 -73 41 -84 47 -89 52 -14 14 -60 39 -60 33 0 -5 -4 -3 -8 3
-13 19 -79 54 -87 46 -5 -4 -5 -2 -1 5 3 7 -2 14 -14 18 -11 4 -38 18 -59 32
-22 14 -43 25 -47 23 -4 -1 -10 2 -13 7 -10 14 -81 55 -81 47 0 -4 -6 -1 -12
8 -7 9 -33 27 -58 40 -25 14 -65 37 -90 52 -141 83 -190 91 -280 46z"/>
<path d="M1616 1286 c-209 -122 -388 -233 -398 -247 -11 -14 -23 -43 -28 -65
-5 -21 -10 -229 -10 -461 l0 -422 103 58 102 58 3 126 3 125 261 154 c144 84
281 171 305 194 l43 41 0 331 c0 183 -1 332 -2 331 -2 0 -174 -101 -382 -223z
m178 -148 c-5 -7 -3 -8 7 -2 41 25 45 17 44 -86 0 -55 -3 -100 -7 -100 -5 0
-7 -3 -7 -7 3 -21 -3 -33 -17 -33 -8 0 -13 -4 -10 -9 3 -5 -1 -12 -10 -15 -10
-4 -13 -2 -9 7 4 6 -1 3 -10 -8 -9 -11 -21 -19 -26 -18 -5 2 -9 -2 -9 -8 0 -5
-5 -7 -10 -4 -6 3 -13 -1 -16 -9 -3 -9 -10 -13 -15 -10 -5 3 -9 0 -9 -7 0 -7
-3 -9 -7 -6 -3 4 -12 -1 -20 -11 -10 -11 -12 -12 -8 -2 4 8 -1 6 -9 -4 -9 -11
-16 -16 -16 -12 0 4 -6 4 -12 -1 -7 -4 -16 -8 -20 -8 -3 0 -10 -4 -15 -9 -5
-5 -3 -6 5 -2 6 4 12 5 12 2 0 -3 -10 -10 -21 -17 -17 -9 -20 -8 -14 3 3 7 0
5 -8 -4 -8 -10 -17 -15 -20 -11 -4 3 -7 1 -7 -5 0 -6 -10 -16 -21 -23 -17 -9
-20 -8 -14 3 3 7 0 5 -8 -5 -9 -10 -18 -18 -21 -18 -19 2 -27 0 -22 -7 2 -4
-8 -8 -23 -8 -26 -1 -26 -1 -26 70 0 39 4 77 9 85 7 10 6 12 -3 6 -10 -6 -11
-3 -2 12 6 11 7 23 4 27 -3 3 1 6 10 6 11 0 14 5 10 15 -3 9 -1 15 5 13 6 -2
18 6 27 17 9 11 14 13 10 5 -4 -8 3 -4 15 10 12 14 19 18 15 10 -4 -10 -2 -9
8 2 8 10 17 15 20 11 4 -3 7 0 7 7 0 7 3 11 6 8 3 -3 16 5 30 19 14 14 31 22
39 19 8 -3 20 3 27 12 7 9 20 18 28 20 8 2 21 10 28 19 6 9 12 13 12 8 0 -5 7
0 16 11 8 10 13 12 9 4 -4 -10 -2 -9 8 2 8 10 17 15 20 11 4 -3 7 -1 7 6 0 7
4 10 9 7 5 -3 11 1 15 9 3 8 8 15 11 15 4 0 3 -5 -1 -12z"/>
</g>
</svg>
